<svg width="152" height="31" viewBox="0 0 152 31" fill="none" xmlns="http://www.w3.org/2000/svg">
<mask id="path-1-inside-1_2303_255" fill="white">
<path d="M0 0H152V31H0V0Z"/>
</mask>
<path d="M0 0H152V31H0V0Z" fill="url(#paint0_linear_2303_255)"/>
<path d="M152 0H153V-1H152V0ZM152 31V32H153V31H152ZM0 1H152V-1H0V1ZM151 0V31H153V0H151ZM152 30H0V32H152V30Z" fill="black" fill-opacity="0.2" mask="url(#path-1-inside-1_2303_255)"/>
<path d="M14.5015 22H17.0095V12.728L23.5645 22H26.0725V8.776H23.5645V18.048L17.0095 8.776H14.5015V22ZM28.687 22H38.32V19.739H31.271V16.395H37.997V14.134H31.271V11.037H38.225V8.776H28.687V22ZM43.3659 22H45.7599L48.4579 12.557L51.1559 22H53.5499L57.4449 8.776H54.7849L52.2959 18.143L49.6359 8.814H47.2609L44.7339 18.086L42.1689 8.776H39.4709L43.3659 22ZM67.6237 22.304C68.6307 22.304 69.5237 22.152 70.3027 21.81C71.0817 21.487 71.6897 21.012 72.1267 20.385C72.5637 19.758 72.7917 19.017 72.7917 18.124C72.7917 15.977 71.4997 14.685 68.8967 14.267L67.4717 14.039C66.4647 13.868 65.7997 13.659 65.4767 13.412C65.1347 13.165 64.9637 12.804 64.9637 12.348C64.9637 11.835 65.1917 11.436 65.6287 11.151C66.0657 10.866 66.6737 10.733 67.4527 10.733C68.1557 10.733 68.7257 10.866 69.1817 11.113C69.6377 11.379 69.9227 11.778 70.0557 12.31H72.6397C72.4307 11.056 71.8417 10.106 70.9107 9.441C69.9797 8.795 68.8207 8.472 67.4337 8.472C66.4837 8.472 65.6287 8.643 64.8687 8.966C64.0897 9.308 63.4817 9.783 63.0447 10.391C62.5887 11.018 62.3607 11.74 62.3607 12.576C62.3607 13.659 62.6647 14.495 63.2917 15.084C63.8997 15.673 64.8117 16.053 66.0467 16.262L67.5287 16.509C68.2507 16.623 68.8017 16.756 69.1817 16.927C69.5617 17.098 69.8277 17.307 69.9607 17.535C70.0937 17.782 70.1697 18.048 70.1697 18.371C70.1697 18.922 69.9227 19.321 69.4477 19.606C68.9537 19.891 68.3267 20.043 67.5857 20.043C66.8067 20.043 66.1417 19.872 65.6097 19.549C65.0587 19.226 64.7167 18.808 64.5457 18.276H61.9617C62.2467 19.549 62.8927 20.537 63.8617 21.24C64.8307 21.943 66.0847 22.304 67.6237 22.304ZM74.6855 22H84.3185V19.739H77.2695V16.395H83.9955V14.134H77.2695V11.037H84.2235V8.776H74.6855V22ZM95.4445 22H98.1805L93.0695 8.776H90.3905L85.2795 22H87.9205L89.0035 18.998H94.3425L95.4445 22ZM89.8205 16.756L91.6825 11.645L93.5445 16.756H89.8205ZM104.261 22.304C105.268 22.304 106.161 22.152 106.94 21.81C107.719 21.487 108.327 21.012 108.764 20.385C109.201 19.758 109.429 19.017 109.429 18.124C109.429 15.977 108.137 14.685 105.534 14.267L104.109 14.039C103.102 13.868 102.437 13.659 102.114 13.412C101.772 13.165 101.601 12.804 101.601 12.348C101.601 11.835 101.829 11.436 102.266 11.151C102.703 10.866 103.311 10.733 104.09 10.733C104.793 10.733 105.363 10.866 105.819 11.113C106.275 11.379 106.56 11.778 106.693 12.31H109.277C109.068 11.056 108.479 10.106 107.548 9.441C106.617 8.795 105.458 8.472 104.071 8.472C103.121 8.472 102.266 8.643 101.506 8.966C100.727 9.308 100.119 9.783 99.6821 10.391C99.2261 11.018 98.9981 11.74 98.9981 12.576C98.9981 13.659 99.3021 14.495 99.9291 15.084C100.537 15.673 101.449 16.053 102.684 16.262L104.166 16.509C104.888 16.623 105.439 16.756 105.819 16.927C106.199 17.098 106.465 17.307 106.598 17.535C106.731 17.782 106.807 18.048 106.807 18.371C106.807 18.922 106.56 19.321 106.085 19.606C105.591 19.891 104.964 20.043 104.223 20.043C103.444 20.043 102.779 19.872 102.247 19.549C101.696 19.226 101.354 18.808 101.183 18.276H98.5991C98.8841 19.549 99.5301 20.537 100.499 21.24C101.468 21.943 102.722 22.304 104.261 22.304ZM117.308 22.304C118.277 22.304 119.189 22.133 120.006 21.791C120.823 21.449 121.526 20.974 122.134 20.347C122.723 19.72 123.198 18.998 123.521 18.143C123.844 17.307 124.015 16.395 124.015 15.388C124.015 14.381 123.844 13.469 123.521 12.614C123.198 11.778 122.723 11.056 122.134 10.429C121.526 9.802 120.823 9.327 120.006 8.985C119.189 8.643 118.277 8.472 117.308 8.472C116.339 8.472 115.446 8.643 114.629 8.985C113.812 9.327 113.09 9.802 112.501 10.429C111.912 11.056 111.437 11.778 111.114 12.614C110.791 13.469 110.62 14.381 110.62 15.388C110.62 16.395 110.791 17.307 111.114 18.143C111.437 18.998 111.912 19.72 112.501 20.347C113.09 20.974 113.812 21.449 114.629 21.791C115.446 22.133 116.339 22.304 117.308 22.304ZM117.308 19.986C116.529 19.986 115.826 19.796 115.218 19.397C114.591 19.017 114.116 18.485 113.774 17.782C113.413 17.098 113.242 16.3 113.242 15.388C113.242 14.476 113.413 13.678 113.774 12.975C114.116 12.291 114.591 11.759 115.218 11.36C115.826 10.98 116.529 10.79 117.308 10.79C118.106 10.79 118.809 10.98 119.436 11.36C120.044 11.759 120.519 12.291 120.88 12.975C121.222 13.678 121.393 14.476 121.393 15.388C121.393 16.3 121.222 17.098 120.88 17.782C120.519 18.485 120.044 19.017 119.436 19.397C118.809 19.796 118.106 19.986 117.308 19.986ZM125.935 22H128.443V12.728L134.998 22H137.506V8.776H134.998V18.048L128.443 8.776H125.935V22Z" fill="#E5E5E5"/>
<defs>
<linearGradient id="paint0_linear_2303_255" x1="76" y1="0" x2="76" y2="31" gradientUnits="userSpaceOnUse">
<stop stop-color="#D9200A"/>
<stop offset="1" stop-color="#AC180A"/>
</linearGradient>
</defs>
</svg>
